<mxfile host="app.diagrams.net" modified="2022-08-04T15:18:34.738Z" agent="5.0 (Windows NT 10.0; Win64; x64) AppleWebKit/537.36 (KHTML, like Gecko) Chrome/98.0.4758.141 Safari/537.36" etag="EnVqKac3l4YTZ7KtnTfO" version="20.2.2" type="github">
  <diagram id="6a731a19-8d31-9384-78a2-239565b7b9f0" name="Page-1">
    <mxGraphModel dx="1246" dy="568" grid="1" gridSize="10" guides="1" tooltips="1" connect="1" arrows="1" fold="1" page="1" pageScale="1" pageWidth="1169" pageHeight="827" background="none" math="0" shadow="0">
      <root>
        <mxCell id="0" />
        <mxCell id="1" style="" parent="0" visible="0" />
        <mxCell id="aCv0Oe6WVhiPaZeMM8eK-1810" value="Topic Layer" style="" parent="0" />
        <mxCell id="aCv0Oe6WVhiPaZeMM8eK-1814" value="YORN@04AUG22" style="swimlane;startSize=20;horizontal=1;containerType=tree;hachureGap=4;" vertex="1" parent="aCv0Oe6WVhiPaZeMM8eK-1810">
          <mxGeometry width="1160" height="820" as="geometry" />
        </mxCell>
        <mxCell id="aCv0Oe6WVhiPaZeMM8eK-1815" value="" style="edgeStyle=entityRelationEdgeStyle;startArrow=none;endArrow=none;segment=10;curved=1;rounded=0;startSize=14;endSize=14;sourcePerimeterSpacing=8;targetPerimeterSpacing=8;" edge="1" parent="aCv0Oe6WVhiPaZeMM8eK-1814" source="aCv0Oe6WVhiPaZeMM8eK-1817" target="aCv0Oe6WVhiPaZeMM8eK-1818">
          <mxGeometry relative="1" as="geometry" />
        </mxCell>
        <mxCell id="aCv0Oe6WVhiPaZeMM8eK-1816" value="" style="edgeStyle=entityRelationEdgeStyle;startArrow=none;endArrow=none;segment=10;curved=1;rounded=0;startSize=14;endSize=14;sourcePerimeterSpacing=8;targetPerimeterSpacing=8;" edge="1" parent="aCv0Oe6WVhiPaZeMM8eK-1814" source="aCv0Oe6WVhiPaZeMM8eK-1817" target="aCv0Oe6WVhiPaZeMM8eK-1819">
          <mxGeometry relative="1" as="geometry" />
        </mxCell>
        <mxCell id="aCv0Oe6WVhiPaZeMM8eK-1817" value="『学习』" style="ellipse;whiteSpace=wrap;html=1;align=center;treeFolding=1;treeMoving=1;newEdgeStyle={&quot;edgeStyle&quot;:&quot;entityRelationEdgeStyle&quot;,&quot;startArrow&quot;:&quot;none&quot;,&quot;endArrow&quot;:&quot;none&quot;,&quot;segment&quot;:10,&quot;curved&quot;:1};hachureGap=4;" vertex="1" parent="aCv0Oe6WVhiPaZeMM8eK-1814">
          <mxGeometry x="170" y="380" width="100" height="40" as="geometry" />
        </mxCell>
        <mxCell id="aCv0Oe6WVhiPaZeMM8eK-1818" value="Topic" style="whiteSpace=wrap;html=1;rounded=1;arcSize=50;align=center;verticalAlign=middle;strokeWidth=1;autosize=1;spacing=4;treeFolding=1;treeMoving=1;newEdgeStyle={&quot;edgeStyle&quot;:&quot;entityRelationEdgeStyle&quot;,&quot;startArrow&quot;:&quot;none&quot;,&quot;endArrow&quot;:&quot;none&quot;,&quot;segment&quot;:10,&quot;curved&quot;:1};hachureGap=4;" vertex="1" parent="aCv0Oe6WVhiPaZeMM8eK-1814">
          <mxGeometry x="330" y="360" width="80" height="20" as="geometry" />
        </mxCell>
        <mxCell id="aCv0Oe6WVhiPaZeMM8eK-1819" value="Branch" style="whiteSpace=wrap;html=1;shape=partialRectangle;top=0;left=0;bottom=1;right=0;points=[[0,1],[1,1]];fillColor=none;align=center;verticalAlign=bottom;routingCenterY=0.5;snapToPoint=1;autosize=1;treeFolding=1;treeMoving=1;newEdgeStyle={&quot;edgeStyle&quot;:&quot;entityRelationEdgeStyle&quot;,&quot;startArrow&quot;:&quot;none&quot;,&quot;endArrow&quot;:&quot;none&quot;,&quot;segment&quot;:10,&quot;curved&quot;:1};hachureGap=4;" vertex="1" parent="aCv0Oe6WVhiPaZeMM8eK-1814">
          <mxGeometry x="330" y="500" width="72" height="26" as="geometry" />
        </mxCell>
        <mxCell id="aCv0Oe6WVhiPaZeMM8eK-1820" value="" style="edgeStyle=entityRelationEdgeStyle;startArrow=none;endArrow=none;segment=10;curved=1;rounded=0;startSize=14;endSize=14;sourcePerimeterSpacing=8;targetPerimeterSpacing=8;" edge="1" parent="aCv0Oe6WVhiPaZeMM8eK-1814" source="aCv0Oe6WVhiPaZeMM8eK-1817" target="aCv0Oe6WVhiPaZeMM8eK-1821">
          <mxGeometry relative="1" as="geometry">
            <mxPoint x="598" y="440" as="sourcePoint" />
          </mxGeometry>
        </mxCell>
        <mxCell id="aCv0Oe6WVhiPaZeMM8eK-1821" value="Topic" style="whiteSpace=wrap;html=1;rounded=1;arcSize=50;align=center;verticalAlign=middle;strokeWidth=1;autosize=1;spacing=4;treeFolding=1;treeMoving=1;newEdgeStyle={&quot;edgeStyle&quot;:&quot;entityRelationEdgeStyle&quot;,&quot;startArrow&quot;:&quot;none&quot;,&quot;endArrow&quot;:&quot;none&quot;,&quot;segment&quot;:10,&quot;curved&quot;:1};hachureGap=4;" vertex="1" parent="aCv0Oe6WVhiPaZeMM8eK-1814">
          <mxGeometry x="330" y="390" width="80" height="20" as="geometry" />
        </mxCell>
        <mxCell id="aCv0Oe6WVhiPaZeMM8eK-1822" value="" style="edgeStyle=entityRelationEdgeStyle;startArrow=none;endArrow=none;segment=10;curved=1;rounded=0;startSize=14;endSize=14;sourcePerimeterSpacing=8;targetPerimeterSpacing=8;" edge="1" parent="aCv0Oe6WVhiPaZeMM8eK-1814" source="aCv0Oe6WVhiPaZeMM8eK-1817" target="aCv0Oe6WVhiPaZeMM8eK-1823">
          <mxGeometry relative="1" as="geometry">
            <mxPoint x="598" y="440" as="sourcePoint" />
          </mxGeometry>
        </mxCell>
        <mxCell id="aCv0Oe6WVhiPaZeMM8eK-1823" value="Topic" style="whiteSpace=wrap;html=1;rounded=1;arcSize=50;align=center;verticalAlign=middle;strokeWidth=1;autosize=1;spacing=4;treeFolding=1;treeMoving=1;newEdgeStyle={&quot;edgeStyle&quot;:&quot;entityRelationEdgeStyle&quot;,&quot;startArrow&quot;:&quot;none&quot;,&quot;endArrow&quot;:&quot;none&quot;,&quot;segment&quot;:10,&quot;curved&quot;:1};hachureGap=4;" vertex="1" parent="aCv0Oe6WVhiPaZeMM8eK-1814">
          <mxGeometry x="330" y="420" width="80" height="20" as="geometry" />
        </mxCell>
        <mxCell id="aCv0Oe6WVhiPaZeMM8eK-1824" value="" style="edgeStyle=entityRelationEdgeStyle;startArrow=none;endArrow=none;segment=10;curved=1;rounded=0;startSize=14;endSize=14;sourcePerimeterSpacing=8;targetPerimeterSpacing=8;" edge="1" parent="aCv0Oe6WVhiPaZeMM8eK-1814" source="aCv0Oe6WVhiPaZeMM8eK-1821" target="aCv0Oe6WVhiPaZeMM8eK-1825">
          <mxGeometry relative="1" as="geometry">
            <mxPoint x="598" y="440" as="sourcePoint" />
          </mxGeometry>
        </mxCell>
        <mxCell id="aCv0Oe6WVhiPaZeMM8eK-1825" value="Topic" style="whiteSpace=wrap;html=1;rounded=1;arcSize=50;align=center;verticalAlign=middle;strokeWidth=1;autosize=1;spacing=4;treeFolding=1;treeMoving=1;newEdgeStyle={&quot;edgeStyle&quot;:&quot;entityRelationEdgeStyle&quot;,&quot;startArrow&quot;:&quot;none&quot;,&quot;endArrow&quot;:&quot;none&quot;,&quot;segment&quot;:10,&quot;curved&quot;:1};hachureGap=4;" vertex="1" parent="aCv0Oe6WVhiPaZeMM8eK-1814">
          <mxGeometry x="450" y="390" width="80" height="20" as="geometry" />
        </mxCell>
        <mxCell id="aCv0Oe6WVhiPaZeMM8eK-1826" value="" style="edgeStyle=entityRelationEdgeStyle;startArrow=none;endArrow=none;segment=10;curved=1;rounded=0;startSize=14;endSize=14;sourcePerimeterSpacing=8;targetPerimeterSpacing=8;" edge="1" parent="aCv0Oe6WVhiPaZeMM8eK-1814" source="aCv0Oe6WVhiPaZeMM8eK-1821" target="aCv0Oe6WVhiPaZeMM8eK-1827">
          <mxGeometry relative="1" as="geometry">
            <mxPoint x="738" y="440" as="sourcePoint" />
          </mxGeometry>
        </mxCell>
        <mxCell id="aCv0Oe6WVhiPaZeMM8eK-1827" value="Topic" style="whiteSpace=wrap;html=1;rounded=1;arcSize=50;align=center;verticalAlign=middle;strokeWidth=1;autosize=1;spacing=4;treeFolding=1;treeMoving=1;newEdgeStyle={&quot;edgeStyle&quot;:&quot;entityRelationEdgeStyle&quot;,&quot;startArrow&quot;:&quot;none&quot;,&quot;endArrow&quot;:&quot;none&quot;,&quot;segment&quot;:10,&quot;curved&quot;:1};hachureGap=4;" vertex="1" parent="aCv0Oe6WVhiPaZeMM8eK-1814">
          <mxGeometry x="450" y="420" width="80" height="20" as="geometry" />
        </mxCell>
        <mxCell id="aCv0Oe6WVhiPaZeMM8eK-1828" value="" style="edgeStyle=entityRelationEdgeStyle;startArrow=none;endArrow=none;segment=10;curved=1;rounded=0;startSize=14;endSize=14;sourcePerimeterSpacing=8;targetPerimeterSpacing=8;" edge="1" parent="aCv0Oe6WVhiPaZeMM8eK-1814" source="aCv0Oe6WVhiPaZeMM8eK-1827" target="aCv0Oe6WVhiPaZeMM8eK-1829">
          <mxGeometry relative="1" as="geometry">
            <mxPoint x="738" y="440" as="sourcePoint" />
          </mxGeometry>
        </mxCell>
        <mxCell id="aCv0Oe6WVhiPaZeMM8eK-1829" value="Topic" style="whiteSpace=wrap;html=1;rounded=1;arcSize=50;align=center;verticalAlign=middle;strokeWidth=1;autosize=1;spacing=4;treeFolding=1;treeMoving=1;newEdgeStyle={&quot;edgeStyle&quot;:&quot;entityRelationEdgeStyle&quot;,&quot;startArrow&quot;:&quot;none&quot;,&quot;endArrow&quot;:&quot;none&quot;,&quot;segment&quot;:10,&quot;curved&quot;:1};hachureGap=4;" vertex="1" parent="aCv0Oe6WVhiPaZeMM8eK-1814">
          <mxGeometry x="570" y="420" width="80" height="20" as="geometry" />
        </mxCell>
        <mxCell id="aCv0Oe6WVhiPaZeMM8eK-1837" value="Title" style="locked=1;" parent="0" visible="0" />
        <mxCell id="aCv0Oe6WVhiPaZeMM8eK-1838" value="&lt;br&gt;重构『学习』" style="shape=note;whiteSpace=wrap;html=1;backgroundOutline=1;fontColor=default;darkOpacity=0.05;fillColor=#FFF9B2;strokeColor=none;fillStyle=solid;direction=west;gradientDirection=north;gradientColor=#FFF2A1;shadow=1;size=20;pointerEvents=1;hachureGap=4;fontStyle=1;fontSize=30;labelBorderColor=none;verticalAlign=top;" vertex="1" parent="aCv0Oe6WVhiPaZeMM8eK-1837">
          <mxGeometry x="40" y="80" width="290" height="160" as="geometry" />
        </mxCell>
        <mxCell id="aCv0Oe6WVhiPaZeMM8eK-1839" value="&amp;nbsp; YJango" style="rounded=0;whiteSpace=wrap;html=1;labelBackgroundColor=none;labelBorderColor=none;hachureGap=4;fontSize=14;fontColor=#99CCFF;strokeColor=#99CCFF;align=center;fillColor=#99CCFF;opacity=20;fontFamily=Verdana;" vertex="1" parent="aCv0Oe6WVhiPaZeMM8eK-1837">
          <mxGeometry x="40" y="760" width="70" height="30" as="geometry" />
        </mxCell>
        <mxCell id="aCv0Oe6WVhiPaZeMM8eK-1840" value="modevol.com&lt;br style=&quot;font-size: 14px;&quot;&gt;b23.tv/AAZkKYn" style="text;strokeColor=none;fillColor=none;html=1;align=left;verticalAlign=middle;whiteSpace=wrap;rounded=0;labelBorderColor=none;hachureGap=4;fontSize=14;fontColor=#99CCFF;fontStyle=4;fontFamily=Courier New;" vertex="1" parent="aCv0Oe6WVhiPaZeMM8eK-1837">
          <mxGeometry x="120" y="760" width="120" height="30" as="geometry" />
        </mxCell>
        <mxCell id="aCv0Oe6WVhiPaZeMM8eK-1841" value="孩子不学习，怎么办" style="text;strokeColor=none;fillColor=none;html=1;align=left;verticalAlign=middle;whiteSpace=wrap;rounded=0;labelBorderColor=none;hachureGap=4;fontSize=24;fontColor=#4D4D4D;fontStyle=2" vertex="1" parent="aCv0Oe6WVhiPaZeMM8eK-1837">
          <mxGeometry x="80" y="180" width="230" height="30" as="geometry" />
        </mxCell>
      </root>
    </mxGraphModel>
  </diagram>
</mxfile>
